<svg xmlns="http://www.w3.org/2000/svg" xmlns:xlink="http://www.w3.org/1999/xlink" width="107" zoomAndPan="magnify" viewBox="0 0 80.25 30.000001" height="40" preserveAspectRatio="xMidYMid meet" version="1.0"><defs><g/><clipPath id="3cb34dce31"><path d="M 1.15625 7.523438 L 17.125 7.523438 L 17.125 23.492188 L 1.15625 23.492188 Z M 1.15625 7.523438 " clip-rule="nonzero"/></clipPath><clipPath id="2aff8dc195"><path d="M 45 10 L 78.59375 10 L 78.59375 20 L 45 20 Z M 45 10 " clip-rule="nonzero"/></clipPath></defs><g fill="#ffffff" fill-opacity="1"><g transform="translate(18.933183, 19.746388)"><g><path d="M 5.703125 -1.75 L 6.671875 -1.75 L 6.234375 -3.140625 L 3.265625 -3.140625 L 2.828125 -1.75 L 3.84375 -1.75 L 3.84375 0 L 0.171875 0 L 0.171875 -1.75 L 0.890625 -1.75 L 3.53125 -9.6875 L 6.09375 -9.6875 L 8.6875 -1.75 L 9.390625 -1.75 L 9.390625 0 L 5.703125 0 Z M 3.765625 -4.78125 L 5.71875 -4.78125 L 4.734375 -7.9375 Z M 3.765625 -4.78125 "/></g></g></g><g fill="#ffffff" fill-opacity="1"><g transform="translate(28.461021, 19.746388)"><g><path d="M 10.796875 -9.6875 L 14.9375 -9.6875 L 14.9375 -7.9375 L 14.0625 -7.9375 L 11.828125 0 L 9.078125 0 L 7.609375 -6.046875 L 6.109375 0 L 3.375 0 L 1.109375 -7.9375 L 0.125 -7.9375 L 0.125 -9.6875 L 4.28125 -9.6875 L 4.28125 -7.9375 L 3.28125 -7.9375 L 4.703125 -2.703125 L 6.421875 -9.671875 L 8.796875 -9.671875 L 10.484375 -2.703125 L 11.921875 -7.9375 L 10.796875 -7.9375 Z M 10.796875 -9.6875 "/></g></g></g><g clip-path="url(#3cb34dce31)"><path fill="#03ad2e" d="M 9.316406 7.523438 C 13.824219 7.523438 17.476562 11.175781 17.476562 15.683594 C 17.476562 20.1875 13.824219 23.84375 9.316406 23.84375 C 4.808594 23.84375 1.15625 20.1875 1.15625 15.683594 C 1.15625 11.175781 4.808594 7.523438 9.316406 7.523438 Z M 4.667969 12.765625 L 11.253906 12.765625 C 11.625 12.765625 11.925781 13.070312 11.925781 13.4375 L 11.925781 14.679688 C 11.925781 14.71875 11.945312 14.746094 11.976562 14.765625 C 12.007812 14.78125 12.042969 14.777344 12.074219 14.753906 L 14.140625 13.222656 C 14.238281 13.152344 14.355469 13.140625 14.464844 13.195312 C 14.574219 13.25 14.636719 13.351562 14.636719 13.472656 L 14.636719 17.949219 C 14.636719 18.070312 14.574219 18.175781 14.464844 18.226562 C 14.355469 18.28125 14.238281 18.273438 14.140625 18.199219 L 12.074219 16.667969 C 12.042969 16.644531 12.007812 16.644531 11.976562 16.660156 C 11.945312 16.675781 11.925781 16.707031 11.925781 16.742188 L 11.925781 17.925781 C 11.925781 18.296875 11.625 18.597656 11.253906 18.597656 L 4.667969 18.597656 C 4.296875 18.597656 3.996094 18.296875 3.996094 17.925781 L 3.996094 13.4375 C 3.996094 13.070312 4.296875 12.765625 4.667969 12.765625 Z M 4.667969 12.765625 " fill-opacity="1" fill-rule="evenodd"/></g><g clip-path="url(#2aff8dc195)"><g fill="#ffffff" fill-opacity="1"><g transform="translate(44.687439, 19.778453)"><g><path d="M 0.921875 -1.09375 L 1.828125 -1.09375 L 1.828125 -8.46875 L 0.921875 -8.46875 L 0.921875 -9.6875 L 3.984375 -9.6875 L 7.0625 -1.328125 L 10.171875 -9.6875 L 13.078125 -9.6875 L 13.078125 -8.46875 L 12.171875 -8.46875 L 12.171875 -1.09375 L 13.078125 -1.09375 L 13.078125 0 L 9.9375 0 L 9.9375 -1.09375 L 10.96875 -1.09375 L 10.96875 -8.546875 L 7.578125 0 L 6.5 0 L 3.0625 -8.5625 L 3.0625 -1.09375 L 4.0625 -1.09375 L 4.0625 0 L 0.921875 0 Z M 0.921875 -1.09375 "/></g></g><g transform="translate(58.685686, 19.778453)"><g><path d="M 1.765625 -3.15625 C 1.765625 -2.96875 1.773438 -2.796875 1.796875 -2.640625 C 1.828125 -2.484375 1.867188 -2.335938 1.921875 -2.203125 C 2.078125 -1.773438 2.328125 -1.453125 2.671875 -1.234375 C 3.023438 -1.023438 3.421875 -0.921875 3.859375 -0.921875 C 4.203125 -0.921875 4.535156 -0.96875 4.859375 -1.0625 C 5.191406 -1.15625 5.535156 -1.304688 5.890625 -1.515625 L 6.375 -0.703125 C 5.9375 -0.398438 5.5 -0.175781 5.0625 -0.03125 C 4.625 0.113281 4.171875 0.1875 3.703125 0.1875 C 3.253906 0.1875 2.835938 0.113281 2.453125 -0.03125 C 2.066406 -0.1875 1.738281 -0.410156 1.46875 -0.703125 C 1.195312 -0.992188 0.984375 -1.359375 0.828125 -1.796875 C 0.671875 -2.242188 0.59375 -2.757812 0.59375 -3.34375 C 0.59375 -3.8125 0.65625 -4.253906 0.78125 -4.671875 C 0.914062 -5.097656 1.113281 -5.46875 1.375 -5.78125 C 1.632812 -6.09375 1.957031 -6.335938 2.34375 -6.515625 C 2.738281 -6.703125 3.191406 -6.796875 3.703125 -6.796875 C 4.203125 -6.796875 4.617188 -6.71875 4.953125 -6.5625 C 5.285156 -6.414062 5.554688 -6.21875 5.765625 -5.96875 C 5.984375 -5.71875 6.144531 -5.429688 6.25 -5.109375 C 6.363281 -4.796875 6.441406 -4.472656 6.484375 -4.140625 C 6.503906 -3.972656 6.515625 -3.804688 6.515625 -3.640625 C 6.523438 -3.472656 6.53125 -3.3125 6.53125 -3.15625 Z M 3.625 -5.796875 C 3.34375 -5.796875 3.097656 -5.753906 2.890625 -5.671875 C 2.691406 -5.597656 2.519531 -5.488281 2.375 -5.34375 C 2.226562 -5.195312 2.109375 -5.015625 2.015625 -4.796875 C 1.929688 -4.585938 1.867188 -4.347656 1.828125 -4.078125 L 5.265625 -4.078125 C 5.242188 -4.328125 5.203125 -4.554688 5.140625 -4.765625 C 5.078125 -4.972656 4.984375 -5.15625 4.859375 -5.3125 C 4.734375 -5.46875 4.566406 -5.585938 4.359375 -5.671875 C 4.160156 -5.753906 3.914062 -5.796875 3.625 -5.796875 Z M 3.625 -5.796875 "/></g></g><g transform="translate(66.199592, 19.778453)"><g><path d="M 1.765625 -3.15625 C 1.765625 -2.96875 1.773438 -2.796875 1.796875 -2.640625 C 1.828125 -2.484375 1.867188 -2.335938 1.921875 -2.203125 C 2.078125 -1.773438 2.328125 -1.453125 2.671875 -1.234375 C 3.023438 -1.023438 3.421875 -0.921875 3.859375 -0.921875 C 4.203125 -0.921875 4.535156 -0.96875 4.859375 -1.0625 C 5.191406 -1.15625 5.535156 -1.304688 5.890625 -1.515625 L 6.375 -0.703125 C 5.9375 -0.398438 5.5 -0.175781 5.0625 -0.03125 C 4.625 0.113281 4.171875 0.1875 3.703125 0.1875 C 3.253906 0.1875 2.835938 0.113281 2.453125 -0.03125 C 2.066406 -0.1875 1.738281 -0.410156 1.46875 -0.703125 C 1.195312 -0.992188 0.984375 -1.359375 0.828125 -1.796875 C 0.671875 -2.242188 0.59375 -2.757812 0.59375 -3.34375 C 0.59375 -3.8125 0.65625 -4.253906 0.78125 -4.671875 C 0.914062 -5.097656 1.113281 -5.46875 1.375 -5.78125 C 1.632812 -6.09375 1.957031 -6.335938 2.34375 -6.515625 C 2.738281 -6.703125 3.191406 -6.796875 3.703125 -6.796875 C 4.203125 -6.796875 4.617188 -6.71875 4.953125 -6.5625 C 5.285156 -6.414062 5.554688 -6.21875 5.765625 -5.96875 C 5.984375 -5.71875 6.144531 -5.429688 6.25 -5.109375 C 6.363281 -4.796875 6.441406 -4.472656 6.484375 -4.140625 C 6.503906 -3.972656 6.515625 -3.804688 6.515625 -3.640625 C 6.523438 -3.472656 6.53125 -3.3125 6.53125 -3.15625 Z M 3.625 -5.796875 C 3.34375 -5.796875 3.097656 -5.753906 2.890625 -5.671875 C 2.691406 -5.597656 2.519531 -5.488281 2.375 -5.34375 C 2.226562 -5.195312 2.109375 -5.015625 2.015625 -4.796875 C 1.929688 -4.585938 1.867188 -4.347656 1.828125 -4.078125 L 5.265625 -4.078125 C 5.242188 -4.328125 5.203125 -4.554688 5.140625 -4.765625 C 5.078125 -4.972656 4.984375 -5.15625 4.859375 -5.3125 C 4.734375 -5.46875 4.566406 -5.585938 4.359375 -5.671875 C 4.160156 -5.753906 3.914062 -5.796875 3.625 -5.796875 Z M 3.625 -5.796875 "/></g></g><g transform="translate(73.713498, 19.778453)"><g><path d="M 2.5625 -6.625 L 4.109375 -6.625 L 4.109375 -5.65625 L 2.546875 -5.65625 L 2.53125 -1.828125 C 2.53125 -1.566406 2.554688 -1.351562 2.609375 -1.1875 C 2.671875 -1.03125 2.765625 -0.921875 2.890625 -0.859375 C 3.023438 -0.804688 3.175781 -0.78125 3.34375 -0.78125 C 3.53125 -0.78125 3.691406 -0.796875 3.828125 -0.828125 C 3.960938 -0.859375 4.109375 -0.910156 4.265625 -0.984375 L 4.546875 -0.1875 C 4.335938 -0.0820312 4.117188 0 3.890625 0.0625 C 3.671875 0.125 3.40625 0.15625 3.09375 0.15625 C 2.8125 0.15625 2.5625 0.117188 2.34375 0.046875 C 2.125 -0.015625 1.941406 -0.128906 1.796875 -0.296875 C 1.648438 -0.460938 1.539062 -0.6875 1.46875 -0.96875 C 1.394531 -1.25 1.359375 -1.597656 1.359375 -2.015625 L 1.375 -5.65625 L 0.328125 -5.65625 L 0.328125 -6.625 L 1.390625 -6.625 L 1.390625 -8.203125 L 2.5625 -8.765625 Z M 2.5625 -6.625 "/></g></g></g></g></svg>